# xmcd
#
# Track frame offsets:
#	150
#	19527
#	35483
#	52734
#	73814
#	90788
#	107467
#	130894
#	147073
#	163437
#	178250
#	198012
#	219548
#	235030
#
# Disc length: 3366 seconds
#
# Revision: 0
# Processed by: cddbd v1.5.1PL0 Copyright (c) Steve Scherf et al.
# Submitted via: EasyCDDAExtractor 8.2.1.1
#
DISCID=b50d240e
DTITLE=Carolyn Dawn Johnson - Dress Rehearsal
DYEAR=1900
DGENRE=
TTITLE0=Dress Rehearsal
TTITLE1=He's Mine
TTITLE2=Complicated
TTITLE3=I Don't Want You To Go
TTITLE4=We Talked
TTITLE5=My Little Secret
TTITLE6=You Are
TTITLE7=Just Another Girl
TTITLE8=Squeezin' The Love Outta You
TTITLE9=Head Over High Heels
TTITLE10=God Doesn't Make Mistakes
TTITLE11=Not Enough To Stay
TTITLE12=Die Of A Broken Heart
TTITLE13=Room With A View
EXTD=
EXTT0=
EXTT1=
EXTT2=
EXTT3=
EXTT4=
EXTT5=
EXTT6=
EXTT7=
EXTT8=
EXTT9=
EXTT10=
EXTT11=
EXTT12=
EXTT13=
PLAYORDER=
